<?xml version="1.0" ?><!DOCTYPE svg  PUBLIC '-//W3C//DTD SVG 1.1//EN'  'http://www.w3.org/Graphics/SVG/1.1/DTD/svg11.dtd'><svg enable-background="new 0 0 24 24" height="24px" id="Layer_1" version="1.1" viewBox="0 0 24 24" width="24px" xml:space="preserve" xmlns="http://www.w3.org/2000/svg" xmlns:xlink="http://www.w3.org/1999/xlink"><g><g><g><path d="M14.5,22.1L14.5,22.1c-0.1,0-0.1,0-0.2,0l-1.2,0l-2,0c-0.5,0-1.1,0-1.6,0c0,0,0,0,0,0c-0.8,0-1.5-0.3-2.1-0.9l-6-5.9     c-0.8-0.7-1.1-1.8-0.8-2.8c0.1-0.5,0.4-1,0.8-1.4l8.5-8.4c0.4-0.4,0.9-0.7,1.4-0.8c0.7-0.1,1.3-0.1,1.9,0.2     C13.7,2.3,14,2.7,14.4,3l0.2,0.2c1.8,1.8,3.5,3.5,5.3,5.2l2.5,2.4c0.4,0.4,0.8,0.8,1,1.4c0.3,0.9,0.2,1.9-0.3,2.6     c-0.2,0.3-0.5,0.5-0.7,0.8l-5.6,5.6C16.1,21.8,15.3,22.1,14.5,22.1z M13.1,21.1l1.4,0l0,0c0.6,0,1.1-0.2,1.5-0.6l5.6-5.6     c0.2-0.2,0.4-0.4,0.6-0.6c0.3-0.5,0.4-1.1,0.2-1.7c-0.1-0.4-0.4-0.7-0.8-1l-2.5-2.4c-1.8-1.7-3.5-3.5-5.3-5.2l-0.2-0.2     c-0.3-0.3-0.5-0.5-0.8-0.7c-0.4-0.2-0.8-0.2-1.3-0.1c-0.3,0.1-0.7,0.3-0.9,0.5l-8.5,8.4c-0.3,0.3-0.5,0.6-0.5,0.9     c-0.2,0.6,0,1.3,0.5,1.8l6,5.9c0.4,0.4,0.8,0.6,1.3,0.6c0.6,0,1.1,0,1.7,0L13.1,21.1z M12,20.1c-0.2,0-0.4,0-0.6,0     c-0.1,0-0.1,0-0.2,0c-0.3-0.1-0.5-0.4-0.7-0.6c-0.1-0.1-0.1-0.1-0.2-0.2c-0.7-0.7-0.5-1.1-0.3-1.4c0.4-0.4,0.8-0.8,1.3-1.3     c0.4-0.3,0.9-0.2,1.2,0.1c0.3,0.3,0.7,0.7,1.1,1.1c0.2,0.1,0.3,0.4,0.3,0.6c0,0.2-0.1,0.4-0.3,0.6c-0.2,0.3-0.6,0.6-1,1     c-0.1,0-0.1,0.1-0.2,0.1C12.5,20,12.3,20.1,12,20.1z M11.7,19c0.2,0,0.4,0,0.6,0c0.3-0.2,0.5-0.5,0.7-0.7c-0.3-0.3-0.7-0.6-1-1     c-0.4,0.3-0.7,0.7-1,1c0,0,0.1,0.1,0.1,0.1c0.1,0.1,0.2,0.2,0.3,0.3C11.5,18.8,11.6,19,11.7,19z M9.5,17.5c-0.1,0-0.3,0-0.4,0     l-0.2,0c-0.1,0-0.2,0-0.2-0.1c-0.4-0.2-0.7-0.6-0.9-0.9l-0.2-0.2c-0.1-0.1-0.2-0.3-0.2-0.5c0-0.3,0.2-0.6,0.4-0.8     c1-1,2.1-2.1,3.2-3.1l0.1-0.1c0.2-0.2,0.3-0.3,0.6-0.5c0.2-0.1,0.3-0.1,0.4-0.1c0.3,0,0.6,0.2,0.7,0.4c0,0,0.1,0.1,0.1,0.1     c0.1,0.1,0.3,0.3,0.4,0.4c0.2,0.2,0.5,0.5,0.7,0.7c0.1,0.1,0.4,0.6-0.2,1.2l-0.6,0.6c-0.9,0.8-1.7,1.7-2.6,2.5     C10.2,17.5,9.7,17.5,9.5,17.5z M9.1,16.5L9.1,16.5c0.2,0,0.3,0,0.4,0c0.2,0,0.3-0.1,0.3-0.1c0.9-0.9,1.7-1.7,2.6-2.6l0.6-0.6     c-0.2-0.2-0.3-0.3-0.5-0.5c-0.1-0.1-0.3-0.3-0.4-0.4L12,12.3c0,0,0,0,0,0c-0.1,0.1-0.1,0.1-0.2,0.2l-0.2,0.2     c-1.1,1-2.1,2.1-3.2,3.1c0,0,0,0,0,0l0.1,0.1C8.7,16.1,8.9,16.3,9.1,16.5z M6.9,15c-0.2,0-0.4,0-0.6-0.1c-0.1,0-0.2-0.1-0.3-0.1     c-0.4-0.3-0.7-0.7-1.1-1.1c-0.2-0.2-0.3-0.6,0.2-1.2c1.3-1.3,2.5-2.5,3.7-3.7L10.8,7c0.1-0.1,0.2-0.2,0.2-0.2     c0.2-0.2,0.4-0.4,0.6-0.5c0.2-0.1,0.3-0.1,0.4-0.1c0.3,0,0.6,0.2,0.7,0.4c0,0,0.1,0.1,0.1,0.1C13,6.7,13.1,6.8,13.2,7     c0.2,0.2,0.5,0.5,0.7,0.7c0.1,0.1,0.4,0.6-0.2,1.2l-0.8,0.8c-1.7,1.6-3.3,3.3-5,4.9C7.8,14.8,7.4,15,6.9,15z M6.6,14     c0.1,0,0.3,0,0.4,0c0.2,0,0.3-0.1,0.3-0.1c1.7-1.7,3.3-3.3,5-4.9L13,8.2c0,0,0,0,0,0c-0.2-0.2-0.3-0.3-0.5-0.5     c-0.1-0.1-0.3-0.3-0.4-0.4L12,7.2c0,0,0,0,0,0c-0.1,0.1-0.2,0.2-0.3,0.3c-0.1,0.1-0.2,0.2-0.2,0.2L9.6,9.6     c-1.2,1.2-2.5,2.5-3.7,3.7c0,0,0,0,0,0C6.1,13.5,6.3,13.8,6.6,14z"/></g></g><g><g><path d="M5,22.1H3.4c-0.3,0-0.5-0.2-0.5-0.5s0.2-0.5,0.5-0.5H5c0.3,0,0.5,0.2,0.5,0.5S5.2,22.1,5,22.1z"/></g><g><path d="M10.1,22.1H6.8c-0.3,0-0.5-0.2-0.5-0.5s0.2-0.5,0.5-0.5h3.3c0.3,0,0.5,0.2,0.5,0.5S10.4,22.1,10.1,22.1z"/></g></g></g></svg>