<?xml version="1.0" ?><svg id="Layer_1" style="enable-background:new 0 0 256 256;" version="1.1" viewBox="0 0 256 256" xml:space="preserve" xmlns="http://www.w3.org/2000/svg" xmlns:xlink="http://www.w3.org/1999/xlink"><g><path d="M110.4,87.8H14.1c-4.7,0-8.5,3.8-8.5,8.5v19.6c0,4.7,3.8,8.5,8.5,8.5h96.3c4.7,0,8.5-3.8,8.5-8.5V96.3   C118.9,91.6,115.1,87.8,110.4,87.8z M109,114.5H15.6V97.8H109V114.5z"/><path d="M110.4,145.4H14.1c-4.7,0-8.5,3.8-8.5,8.5v19.6c0,4.7,3.8,8.5,8.5,8.5h96.3c4.7,0,8.5-3.8,8.5-8.5v-19.6   C118.9,149.2,115.1,145.4,110.4,145.4z M109,172.1H15.6v-16.7H109V172.1z"/><path d="M110.4,203H14.1c-4.7,0-8.5,3.8-8.5,8.5v19.6c0,4.7,3.8,8.5,8.5,8.5h96.3c4.7,0,8.5-3.8,8.5-8.5v-19.6   C118.9,206.8,115.1,203,110.4,203z M109,229.7H15.6v-16.7H109V229.7z"/><path d="M241.9,145.4h-96.3c-4.7,0-8.5,3.8-8.5,8.5v19.6c0,4.7,3.8,8.5,8.5,8.5h96.3c4.7,0,8.5-3.8,8.5-8.5v-19.6   C250.4,149.2,246.6,145.4,241.9,145.4z M240.4,172.1H147v-16.7h93.4V172.1z"/><path d="M241.9,203h-96.3c-4.7,0-8.5,3.8-8.5,8.5v19.6c0,4.7,3.8,8.5,8.5,8.5h96.3c4.7,0,8.5-3.8,8.5-8.5v-19.6   C250.4,206.8,246.6,203,241.9,203z M240.4,229.7H147v-16.7h93.4V229.7z"/><path d="M58,69.4c0.9,1.5,2.5,2.5,4.3,2.5c1.8,0,3.4-0.9,4.3-2.5l14.9-25.8c0.9-1.5,0.9-3.4,0-5s-2.5-2.5-4.3-2.5h-9.9V21.3   c0-2.8-2.2-5-5-5s-5,2.2-5,5v14.7h-9.9c-1.8,0-3.4,0.9-4.3,2.5s-0.9,3.4,0,5L58,69.4z M68.6,46l-6.3,10.9L56,46H68.6z"/><path d="M189.4,127c0.9,1.5,2.5,2.5,4.3,2.5c1.8,0,3.4-0.9,4.3-2.5l14.9-25.8c0.9-1.5,0.9-3.4,0-5c-0.9-1.5-2.5-2.5-4.3-2.5h-9.9   V78.9c0-2.8-2.2-5-5-5s-5,2.2-5,5v14.7h-9.9c-1.8,0-3.4,0.9-4.3,2.5c-0.9,1.5-0.9,3.4,0,5L189.4,127z M200,103.6l-6.3,10.9   l-6.3-10.9H200z"/></g></svg>