<?xml version="1.0" ?><svg id="Icon" viewBox="0 0 64 64" xmlns="http://www.w3.org/2000/svg"><title/><rect height="30" rx="4" style="fill:none;stroke:#4d4d4d;stroke-miterlimit:10;stroke-width:2px" width="48" x="7" y="17"/><polygon points="63 47 55 41 55 23 63 17 63 47" style="fill:none;stroke:#4d4d4d;stroke-linejoin:round;stroke-width:2px"/><circle cx="23" cy="9" r="8" style="fill:none;stroke:#4d4d4d;stroke-miterlimit:10;stroke-width:2px"/><circle cx="37" cy="11" r="5" style="fill:none;stroke:#4d4d4d;stroke-miterlimit:10;stroke-width:2px"/><path d="M3,21H7a0,0,0,0,1,0,0V43a0,0,0,0,1,0,0H3a2,2,0,0,1-2-2V23A2,2,0,0,1,3,21Z" style="fill:none;stroke:#4d4d4d;stroke-miterlimit:10;stroke-width:2px"/><path d="M16,47h6a0,0,0,0,1,0,0V61a2,2,0,0,1-2,2H18a2,2,0,0,1-2-2V47A0,0,0,0,1,16,47Z" style="fill:none;stroke:#4d4d4d;stroke-miterlimit:10;stroke-width:2px"/><rect height="10" rx="2" style="fill:none;stroke:#4d4d4d;stroke-miterlimit:10;stroke-width:2px" width="10" x="12" y="33"/><circle cx="45.5" cy="24.5" r="3.5" style="fill:none;stroke:#4d4d4d;stroke-miterlimit:10;stroke-width:2px"/><circle cx="14.5" cy="23.5" r="2.5" style="fill:none;stroke:#4d4d4d;stroke-miterlimit:10;stroke-width:2px"/><circle cx="23" cy="9" r="2" style="fill:none;stroke:#4d4d4d;stroke-miterlimit:10;stroke-width:2px"/></svg>