<?xml version="1.0" encoding="utf-8"?>
<!-- Generator: Adobe Illustrator 23.0.3, SVG Export Plug-In . SVG Version: 6.00 Build 0)  -->
<svg version="1.1" id="Layer_1" xmlns="http://www.w3.org/2000/svg" xmlns:xlink="http://www.w3.org/1999/xlink" x="0px" y="0px"
	 viewBox="0 0 491.8 491.8" style="enable-background:new 0 0 491.8 491.8;" xml:space="preserve">
<style type="text/css">
	.st0{fill:#1A1A1A;}
	.st1{fill:#1B1B1B;}
	.st2{fill:#1C1C1C;}
	.st3{fill:#191919;}
	.st4{fill:#FEFEFE;}
	.st5{fill:#FBFBFB;}
	.st6{fill:#FDFDFD;}
	.st7{fill:#FCFCFC;}
	.st8{fill:#F4F4F4;}
	.st9{fill:#F8F8F8;}
	.st10{fill:#F9F9F9;}
	.st11{fill:#FAFAFA;}
	.st12{fill:#242424;}
	.st13{fill:#1E1E1E;}
	.st14{fill:#212121;}
	.st15{fill:#E8E8E8;}
	.st16{fill:#EBEBEB;}
	.st17{fill:#2E2E2E;}
	.st18{fill:#333333;}
	.st19{fill:#222222;}
	.st20{fill:#F6F6F6;}
	.st21{fill:#F7F7F7;}
	.st22{fill:#F5F5F5;}
	.st23{fill:#1D1D1D;}
	.st24{fill:#F0F0F0;}
	.st25{fill:#EDEDED;}
	.st26{fill:#E9E9E9;}
	.st27{fill:#EEEEEE;}
	.st28{fill:#F1F1F1;}
	.st29{fill:#E7E7E7;}
	.st30{fill:#F3F3F3;}
	.st31{fill:#32AADF;}
	.st32{fill:#E9585B;}
	.st33{fill:#2AB574;}
	.st34{fill:#F7AE3F;}
</style>
<g>
	<path class="st3" d="M144.6,203.6c-2.2,0.7-6.5-1.3-6.1,2.8c0.4,3.7,2.3,9,6.2,9.1c4.1,0.2,5.9-5.3,6.4-8.8
		C151.7,201.9,147,204.5,144.6,203.6z"/>
	<path class="st3" d="M145,156.6c-4.2-0.3-5.7,5.1-6.4,8.6c-1,5.3,3.9,2.3,6.5,3.6c1.7-1.7,6.6,1.8,6.1-3.2
		C150.9,162,148.9,156.8,145,156.6z"/>
	<path class="st3" d="M457.2,361.3c-1.1-10.1-2.7-24.6-4.3-39.1c-5.7-50.4-10.4-100.9-17.5-151c-7.9-55.9-69.6-83.7-117.8-54.3
		c-4.4,2.7-8.7,4-13.9,4c-33.5-0.1-67-0.2-100.4,0.1c-6.6,0.1-12-1.6-17.6-4.9c-48.6-28.8-110.3,1.6-117,57.6
		c-5.9,50-11.8,100-17.1,150.1c-1.9,18-6.1,36-2.5,54.4c5.7,29.6,32.4,48.1,60.9,41c20.4-5.1,32.4-19.8,40.3-38.2
		c8.9-21,17.3-42.2,25.7-63.5c1.9-4.7,3.8-7.2,9.7-7.5c16.7-1,28.8-9.7,34.8-25.2c2.3-5.8,5.2-7.1,10.8-6.9
		c14.2,0.4,28.5,0.5,42.8,0.1c5.5-0.1,7.9,1.5,10,6.7c6.4,15.3,18.2,24.3,34.9,25.3c5.7,0.3,8.1,2.4,9.9,7.3
		c4,10.9,8.3,21.6,12.9,32.2c6.9,16.1,11.6,33.1,22.3,47.5c16.1,21.8,35.9,28.6,59.9,20.4C446.5,409.5,457.6,392.5,457.2,361.3z
		 M139.1,223.7c-8.4,0.3-12.6-3.9-11.8-12.1c0.7-6.9-2.1-8.5-8.3-8c-8.4,0.7-12.1-4-11.7-12.2c0.1-3.3,0.1-6.6,0-9.9
		c-0.5-9.1,3.4-13.7,12.9-13.1c2.7,0.1,6.4,1.9,7.1-3.9c2.1-16,2.4-15.9,17.8-16c15.2,0,15.5-0.1,17.2,15.6c0.6,5.6,3.9,4.5,6.8,4.3
		c10-0.7,14,4.1,13.3,13.8c-0.2,3.3-0.2,6.6,0,9.9c0.3,7.9-3.6,12.1-11.3,11.5c-6.8-0.5-9.5,1.3-8.7,8.5c0.8,7.8-3.6,11.6-11.3,11.5
		C147.1,223.6,143.1,223.5,139.1,223.7z M182.9,293.6c-13.8,0.2-25.1-11.2-25-25.1c0.1-13.6,11-24.4,24.6-24.4
		c13.4,0,24.5,11,24.6,24.6C207.3,282.1,196.3,293.3,182.9,293.6z M324.7,168.5c8.9-0.1,16.6,7.5,16.5,16.3
		c0,8.4-7.2,15.8-15.7,16.1c-9.1,0.3-16.7-6.7-17-15.7C308.3,176.3,315.8,168.6,324.7,168.5z M347,269.5
		c-0.5,13.4-11.9,24.3-25.3,24.1c-13.4-0.2-24.3-11.4-24.2-25c0.1-13.5,11.1-24.5,24.6-24.5C335.8,244,347.5,255.9,347,269.5z
		 M358.6,234.5c-8.7,0.1-15.9-6.7-16.4-15.3c-0.5-8.8,6.8-16.7,15.7-17c9-0.3,16.7,6.9,17,15.8C375.1,226.9,367.6,234.5,358.6,234.5
		z M359.6,165.9c-8.9-0.2-16.2-8.1-15.9-17c0.4-8.5,7.7-15.7,16.1-15.7c8.9,0,16.5,7.6,16.4,16.5
		C376.1,158.7,368.4,166.2,359.6,165.9z M393.1,199.5c-8.5-0.3-15.6-7.5-15.8-16c-0.2-8.8,7.5-16.7,16.2-16.6
		c9,0,16.2,7.4,16.1,16.6C409.6,192.6,402.1,199.8,393.1,199.5z"/>
	<path class="st3" d="M165.6,192.2c3.5-0.3,8.8-2.3,8.7-6.3c-0.1-3.9-5.4-5.5-8.9-6.3c-4.3-1-2.4,3.2-3,5.5
		C163.7,187.4,159.9,192.7,165.6,192.2z"/>
	<path class="st3" d="M124.2,179.7c-3.6,0.4-8.8,2.4-9.1,6.1c-0.2,4,5.1,5.7,8.6,6.4c5,1,2.7-3.7,3.7-6.5
		C126.1,184,129,179.2,124.2,179.7z"/>
</g>
</svg>
