<?xml version="1.0" ?><svg id="Layer_1" style="enable-background:new 0 0 24 24;" version="1.1" viewBox="0 0 24 24" xml:space="preserve" xmlns="http://www.w3.org/2000/svg" xmlns:xlink="http://www.w3.org/1999/xlink"><style type="text/css">
	.st0{fill:none;stroke:#000000;stroke-width:1.6724;stroke-linecap:round;stroke-linejoin:round;stroke-miterlimit:10;}
	.st1{fill:none;stroke:#000000;stroke-width:1.5;stroke-linecap:round;stroke-linejoin:round;stroke-miterlimit:10;}
	.st2{fill:none;stroke:#000000;stroke-width:1.5;stroke-linejoin:round;stroke-miterlimit:10;}
</style><g><g><g><g><g><path class="st1" d="M4.2,4.1l2,10.8c0.1,0.8,0.8,1.4,1.6,1.4h13.6L23.3,6c0.2-1-0.6-2-1.6-2H4.2z"/></g><g><path class="st1" d="M0.7,1.9h3.2l2.4,12.9c0.2,0.8,0.8,1.4,1.6,1.4h12.9c0.5,0,1,0.2,1.4,0.6c0.3,0.4,0.6,0.8,0.6,1.4       c0,1.1-0.9,1.9-1.9,1.9h-0.7"/><line class="st1" x1="6.8" x2="5.2" y1="20.1" y2="20.1"/><line class="st1" x1="17" x2="10" y1="20.1" y2="20.1"/></g></g></g><g><g><circle class="st1" cx="8.4" cy="20.5" r="1.6"/></g><g><circle class="st1" cx="18.5" cy="20.5" r="1.6"/></g></g></g><g><g><line class="st1" x1="18.5" x2="17.4" y1="7.3" y2="12.9"/><line class="st1" x1="10.2" x2="9.1" y1="12.9" y2="7.3"/></g><g><line class="st1" x1="13.8" x2="13.8" y1="12.9" y2="7.3"/></g></g></g></svg>